# xmcd
#
# Track frame offsets: 
#        150
#        13784
#        32467
#        48586
#        59850
#        73675
#        84147
#        100737
#        111952
#        127311
#
# Disc length: 1905 seconds
#
# Revision: 0
# Processed by: cddbd v1.5.1PL2 Copyright (c) Steve Scherf et al.
# Submitted via: ExactAudioCopy v0.95b4
#
DISCID=8a076f0a
DTITLE=Kick At The Stones - Manitoba Hal
DYEAR=2002
DGENRE=Blues
TTITLE0=A Thousand Miles Of Blacktop
TTITLE1=We Lose It All
TTITLE2=Line and Pole
TTITLE3=Ready To Go Up
TTITLE4=Love Carries On
TTITLE5=Paradise
TTITLE6=St. Peter
TTITLE7=Losing My Race With The Reaper
TTITLE8=Ghost Of Love
TTITLE9=Last Transmission
EXTD=
EXTT0=
EXTT1=
EXTT2=
EXTT3=
EXTT4=
EXTT5=
EXTT6=
EXTT7=
EXTT8=
EXTT9=
PLAYORDER=
